:SAMPLES-PER-SECOND 30
:FULLY-SPECIFIED
:DEGREES
53
root  -3.3539 38.3825 11.1088 -178.998 11.6999 176.591
RightUpLeg  -17.3847 -11.2951 -8.6384
RightLeg  30.8514 -4.68935 -3.26241
RightFoot  -10.5144 -0.163621 12.7032
RightToes  -5.8209e-011 0 -3.6325e-017
Spine  10.8922 -1.94724 -5.48206
Spine1  23.8701 -3.02926 0.60785
HEad  -19.4015 13.5331 -7.80662
LeftShoulder1  1.91125 -5.525 -14.2685
LeftArm  10.5276 2.84866 -60.2112
LeftForeArm  77.4516 -79.5444 -84.0764
LeftHand  -1.35981 -1.4156 23.1532
RightShoulder  0.948455 1.29597 12.7967
RightArm  4.09513 -14.7618 57.017
RightForeArm  138.865 74.5842 139.662
RightHand  -0.657783 4.07234 -8.32705
LeftUpLeg  -10.9581 -5.20795 7.17877
LeftLeg  25.1441 10.005 5.42055
LeftFoot  -13.0841 -0.109985 -12.3812
LeftToes  6.82088e-011 -2.45093e-011 5.71991e-013
54
root  -3.13105 38.2624 11.1199 -179.347 12.215 177.055
RightUpLeg  -17.5016 -11.2558 -7.88815
RightLeg  31.8744 -4.29175 -3.11998
RightFoot  -11.025 -0.109468 12.4062
RightToes  -5.8209e-011 0 -3.6325e-017
Spine  11.0684 -1.76171 -5.07121
Spine1  24.5158 -2.78849 0.614295
HEad  -19.7136 13.8814 -8.0016
LeftShoulder1  1.99947 -5.71846 -14.8318
LeftArm  9.40491 2.94976 -60.8701
LeftForeArm  69.6515 -79.3007 -75.3283
LeftHand  -1.42333 -1.59716 23.5944
RightShoulder  0.943716 1.32298 12.5646
RightArm  3.09088 -13.0234 56.712
RightForeArm  137.768 74.9989 138.301
RightHand  -0.754918 4.3127 -9.29027
LeftUpLeg  -11.2756 -5.68218 7.93331
LeftLeg  27.1321 10.3373 6.04269
LeftFoot  -13.5433 -0.14537 -11.7253
LeftToes  6.82088e-011 -2.45093e-011 5.71991e-013
55
root  -2.99307 38.2254 11.0963 -179.671 12.5963 177.356
RightUpLeg  -17.2157 -10.2689 -7.37085
RightLeg  32.1497 -4.64565 -3.38762
RightFoot  -11.2404 -0.0874251 12.2587
RightToes  -5.8209e-011 0 -3.6325e-017
Spine  11.1566 -1.67549 -4.78486
Spine1  25.0697 -2.63678 0.560476
HEad  -19.6987 14.3461 -7.99238
LeftShoulder1  2.06302 -5.77111 -15.4472
LeftArm  9.10948 3.66992 -61.0153
LeftForeArm  65.1148 -79.0262 -69.8193
LeftHand  -1.47803 -1.76684 23.9128
RightShoulder  0.927695 1.22197 12.6548
RightArm  1.89786 -12.2668 56.4174
RightForeArm  137.483 74.9816 138.291
RightHand  -0.870831 4.5345 -10.4412
LeftUpLeg  -11.3382 -6.18618 8.36835
LeftLeg  28.3998 10.4492 6.40382
LeftFoot  -13.5469 -0.124368 -10.6483
LeftToes  6.82088e-011 -2.45093e-011 5.71991e-013
56
root  -2.95665 38.2852 11.0308 -179.684 12.7316 177.454
RightUpLeg  -16.8063 -9.01892 -7.15259
RightLeg  31.6638 -5.54767 -3.92236
RightFoot  -11.0216 -0.109216 12.1847
RightToes  -5.8209e-011 0 -3.6325e-017
Spine  11.1187 -1.77595 -4.61908
Spine1  25.1606 -2.6722 0.45133
HEad  -19.3123 14.8453 -7.73328
LeftShoulder1  2.09869 -5.7377 -15.9562
LeftArm  9.69705 5.24238 -60.6418
LeftForeArm  64.136 -78.9413 -68.303
LeftHand  -1.49549 -1.79579 24.0919
RightShoulder  0.917177 1.10363 12.9626
RightArm  0.702716 -12.4997 56.1274
RightForeArm  137.792 74.6887 139.172
RightHand  -0.981162 4.75534 -11.4815
LeftUpLeg  -11.4899 -6.5605 8.50425
LeftLeg  28.7202 9.31593 5.83095
LeftFoot  -13.7515 -0.134017 -10.2377
LeftToes  6.82088e-011 -2.45093e-011 5.71991e-013
57
root  -3.01859 38.4317 10.9306 -179.4 12.9439 177.32
RightUpLeg  -16.4484 -7.82405 -7.32853
RightLeg  30.4493 -6.5741 -4.39777
RightFoot  -10.2609 -0.186016 12.2498
RightToes  -5.8209e-011 0 -3.6325e-017
Spine  10.8641 -1.88368 -4.75896
Spine1  25.006 -2.80118 0.485884
HEad  -18.9782 15.2772 -7.60553
LeftShoulder1  2.10621 -5.6577 -16.2616
LeftArm  10.8851 7.37916 -59.9879
LeftForeArm  65.5528 -79.0422 -69.6755
LeftHand  -1.47441 -1.73438 23.9599
RightShoulder  0.90745 1.0009 13.2283
RightArm  -0.354535 -13.3334 55.963
RightForeArm  137.985 74.3558 140.103
RightHand  -1.03361 4.81703 -12.0056
LeftUpLeg  -11.6636 -6.58181 8.28273
LeftLeg  27.9056 7.00618 4.35715
LeftFoot  -13.8164 -0.153382 -10.914
LeftToes  6.82088e-011 -2.45093e-011 5.71991e-013
58
root  -3.17604 38.6207 10.8071 -179.016 13.5769 177.099
RightUpLeg  -16.1245 -6.64881 -7.77223
RightLeg  28.734 -7.19074 -4.48673
RightFoot  -9.09651 -0.308549 12.5221
RightToes  -5.8209e-011 0 -3.6325e-017
Spine  10.4467 -1.84186 -4.92973
Spine1  24.8591 -2.77945 0.588035
HEad  -18.9003 15.6142 -7.86531
LeftShoulder1  2.08165 -5.52576 -16.3305
LeftArm  12.4934 9.43568 -59.2707
LeftForeArm  67.0447 -79.146 -71.4363
LeftHand  -1.44524 -1.73211 23.5094
RightShoulder  0.892092 0.895686 13.3775
RightArm  -1.18102 -14.4348 55.8482
RightForeArm  137.633 74.0425 140.845
RightHand  -1.02321 4.61489 -12.1154
LeftUpLeg  -11.5407 -6.24512 7.78057
LeftLeg  26.1924 5.0162 3.01907
LeftFoot  -12.8837 -0.0861595 -12.1748
LeftToes  6.82088e-011 -2.45093e-011 5.71991e-013
59
root  -3.42987 38.8015 10.6656 -178.612 14.7449 176.992
RightUpLeg  -15.851 -5.31305 -8.25046
RightLeg  26.8387 -7.38728 -4.27404
RightFoot  -7.80586 -0.452515 12.8841
RightToes  -5.8209e-011 0 -3.6325e-017
Spine  10.01 -1.6712 -4.71099
Spine1  24.5966 -2.46854 0.459163
HEad  -18.7915 15.9514 -8.31613
LeftShoulder1  2.03161 -5.35991 -16.185
LeftArm  14.3598 11.0603 -58.6184
LeftForeArm  66.876 -79.1433 -71.8438
LeftHand  -1.41814 -1.77576 22.9469
RightShoulder  0.875413 0.793843 13.482
RightArm  -1.7165 -15.6057 55.6142
RightForeArm  136.938 73.765 141.411
RightHand  -1.00286 4.32522 -12.2179
LeftUpLeg  -11.0193 -5.62587 7.18814
LeftLeg  24.2275 4.63517 2.60765
LeftFoot  -11.2427 0.0778238 -13.1637
LeftToes  6.82088e-011 -2.45093e-011 5.71991e-013
